<mxfile host="app.diagrams.net" agent="Mozilla/5.0 (Macintosh; Intel Mac OS X 10_15_7) AppleWebKit/537.36 (KHTML, like Gecko) Chrome/129.0.0.0 Safari/537.36" version="24.7.16" pages="3">
  <diagram name="Infrastructure" id="ys6RFwK9HlgiFBmV7xUC">
    <mxGraphModel dx="3364" dy="3302" grid="0" gridSize="10" guides="1" tooltips="1" connect="1" arrows="1" fold="1" page="1" pageScale="1" pageWidth="850" pageHeight="1100" background="#FFFFFF" math="0" shadow="0">
      <root>
        <mxCell id="0" />
        <mxCell id="1" parent="0" />
        <mxCell id="UWezN6xjTHgVV8BSWIIu-20" style="edgeStyle=orthogonalEdgeStyle;rounded=0;orthogonalLoop=1;jettySize=auto;html=1;exitX=0.003;exitY=0.403;exitDx=0;exitDy=0;endArrow=none;endFill=0;exitPerimeter=0;fontFamily=Courier New;" edge="1" parent="1" target="UWezN6xjTHgVV8BSWIIu-14">
          <mxGeometry relative="1" as="geometry">
            <mxPoint x="470.4949999999999" y="-452.99" as="sourcePoint" />
            <Array as="points" />
          </mxGeometry>
        </mxCell>
        <mxCell id="UWezN6xjTHgVV8BSWIIu-6" value="" style="rounded=1;whiteSpace=wrap;html=1;fillColor=#6a00ff;strokeColor=#3700CC;fontColor=#ffffff;fontFamily=Courier New;" vertex="1" parent="1">
          <mxGeometry x="472.5" y="-550" width="165" height="150" as="geometry" />
        </mxCell>
        <mxCell id="UWezN6xjTHgVV8BSWIIu-19" style="edgeStyle=orthogonalEdgeStyle;rounded=0;orthogonalLoop=1;jettySize=auto;html=1;exitX=-0.001;exitY=0.215;exitDx=0;exitDy=0;endArrow=none;endFill=0;exitPerimeter=0;fontFamily=Courier New;" edge="1" parent="1" target="UWezN6xjTHgVV8BSWIIu-15">
          <mxGeometry relative="1" as="geometry">
            <mxPoint x="469.83500000000004" y="-498.10999999999984" as="sourcePoint" />
          </mxGeometry>
        </mxCell>
        <mxCell id="UWezN6xjTHgVV8BSWIIu-13" value="" style="shape=image;verticalLabelPosition=bottom;labelBackgroundColor=default;verticalAlign=top;aspect=fixed;imageAspect=0;image=https://logos-world.net/wp-content/uploads/2023/06/Kubernetes-Logo.png;clipPath=inset(31.07% 0% 31.66% 0%);fontFamily=Courier New;" vertex="1" parent="1">
          <mxGeometry x="480" y="-536.9200000000001" width="150" height="31.5" as="geometry" />
        </mxCell>
        <mxCell id="UWezN6xjTHgVV8BSWIIu-14" value="" style="sketch=0;pointerEvents=1;shadow=0;dashed=0;html=1;strokeColor=none;fillColor=#505050;labelPosition=center;verticalLabelPosition=bottom;verticalAlign=top;outlineConnect=0;align=center;shape=mxgraph.office.devices.hard_disk;fontFamily=Courier New;" vertex="1" parent="1">
          <mxGeometry x="272.5" y="-473.28999999999996" width="30" height="40.5" as="geometry" />
        </mxCell>
        <mxCell id="UWezN6xjTHgVV8BSWIIu-26" style="edgeStyle=orthogonalEdgeStyle;rounded=0;orthogonalLoop=1;jettySize=auto;html=1;endArrow=none;endFill=0;curved=1;fontFamily=Courier New;" edge="1" parent="1" source="UWezN6xjTHgVV8BSWIIu-15" target="UWezN6xjTHgVV8BSWIIu-24">
          <mxGeometry relative="1" as="geometry" />
        </mxCell>
        <mxCell id="UWezN6xjTHgVV8BSWIIu-15" value="" style="sketch=0;pointerEvents=1;shadow=0;dashed=0;html=1;strokeColor=none;fillColor=#434445;aspect=fixed;labelPosition=center;verticalLabelPosition=bottom;verticalAlign=top;align=center;outlineConnect=0;shape=mxgraph.vvd.ethernet_port;fontFamily=Courier New;" vertex="1" parent="1">
          <mxGeometry x="270" y="-515.3299999999999" width="35" height="35" as="geometry" />
        </mxCell>
        <mxCell id="UWezN6xjTHgVV8BSWIIu-9" value="Node 1" style="image;points=[];aspect=fixed;html=1;align=center;shadow=0;dashed=0;image=img/lib/allied_telesis/computer_and_terminals/Server_Desktop.svg;fontFamily=Courier New;" vertex="1" parent="1">
          <mxGeometry x="355" y="-518.21" width="64.69" height="82" as="geometry" />
        </mxCell>
        <mxCell id="UWezN6xjTHgVV8BSWIIu-24" value="" style="verticalLabelPosition=bottom;sketch=0;aspect=fixed;html=1;verticalAlign=top;strokeColor=none;align=left;outlineConnect=0;shape=mxgraph.citrix.firewall;fontFamily=Courier New;labelBorderColor=none;" vertex="1" parent="1">
          <mxGeometry x="50" y="-446" width="75" height="93" as="geometry" />
        </mxCell>
        <mxCell id="UWezN6xjTHgVV8BSWIIu-28" style="edgeStyle=orthogonalEdgeStyle;rounded=0;orthogonalLoop=1;jettySize=auto;html=1;endArrow=none;endFill=0;curved=1;exitX=0.5;exitY=1;exitDx=0;exitDy=0;fontFamily=Courier New;" edge="1" parent="1" source="UWezN6xjTHgVV8BSWIIu-29" target="UWezN6xjTHgVV8BSWIIu-24">
          <mxGeometry relative="1" as="geometry">
            <mxPoint x="200" y="-412" as="sourcePoint" />
            <mxPoint x="135" y="-389" as="targetPoint" />
          </mxGeometry>
        </mxCell>
        <mxCell id="UWezN6xjTHgVV8BSWIIu-29" value="Helper Node" style="rounded=1;whiteSpace=wrap;html=1;fillColor=#6a00ff;strokeColor=#3700CC;fontColor=#ffffff;verticalAlign=top;fontFamily=Courier New;" vertex="1" parent="1">
          <mxGeometry x="5" y="-660" width="165" height="150" as="geometry" />
        </mxCell>
        <mxCell id="UWezN6xjTHgVV8BSWIIu-27" value="" style="shape=image;verticalLabelPosition=bottom;labelBackgroundColor=default;verticalAlign=top;aspect=fixed;imageAspect=0;image=https://blog.briancmoses.com/images/2021/tailscale/tailscale-logo-black-800.png;fontFamily=Courier New;" vertex="1" parent="1">
          <mxGeometry x="18.75" y="-570.4" width="137.5" height="44" as="geometry" />
        </mxCell>
        <mxCell id="_eA4tgvw_Bgz834lRvIM-1" style="edgeStyle=orthogonalEdgeStyle;rounded=0;orthogonalLoop=1;jettySize=auto;html=1;exitX=0.003;exitY=0.403;exitDx=0;exitDy=0;endArrow=none;endFill=0;exitPerimeter=0;fontFamily=Courier New;" edge="1" parent="1" target="_eA4tgvw_Bgz834lRvIM-7">
          <mxGeometry relative="1" as="geometry">
            <mxPoint x="472.9949999999999" y="-271.99" as="sourcePoint" />
            <Array as="points" />
          </mxGeometry>
        </mxCell>
        <mxCell id="_eA4tgvw_Bgz834lRvIM-2" value="" style="rounded=1;whiteSpace=wrap;html=1;fillColor=#6a00ff;strokeColor=#3700CC;fontColor=#ffffff;fontFamily=Courier New;" vertex="1" parent="1">
          <mxGeometry x="475" y="-369" width="165" height="150" as="geometry" />
        </mxCell>
        <mxCell id="_eA4tgvw_Bgz834lRvIM-3" style="edgeStyle=orthogonalEdgeStyle;rounded=0;orthogonalLoop=1;jettySize=auto;html=1;exitX=-0.001;exitY=0.215;exitDx=0;exitDy=0;endArrow=none;endFill=0;exitPerimeter=0;fontFamily=Courier New;" edge="1" parent="1" target="_eA4tgvw_Bgz834lRvIM-8">
          <mxGeometry relative="1" as="geometry">
            <mxPoint x="472.33500000000004" y="-317.10999999999984" as="sourcePoint" />
          </mxGeometry>
        </mxCell>
        <mxCell id="_eA4tgvw_Bgz834lRvIM-4" value="" style="shape=image;verticalLabelPosition=bottom;labelBackgroundColor=default;verticalAlign=top;aspect=fixed;imageAspect=0;image=https://upload.wikimedia.org/wikipedia/commons/thumb/8/8f/Cilium_Logo.svg/2560px-Cilium_Logo.svg.png;fontFamily=Courier New;" vertex="1" parent="1">
          <mxGeometry x="507.39666666666665" y="-311.41888888888894" width="100.22222222222221" height="37.83511111111111" as="geometry" />
        </mxCell>
        <mxCell id="_eA4tgvw_Bgz834lRvIM-5" value="" style="shape=image;verticalLabelPosition=bottom;labelBackgroundColor=default;verticalAlign=top;aspect=fixed;imageAspect=0;image=https://ceph.io/assets/bitmaps/Ceph_Logo_Standard_RGB_120411_fa.png;fontFamily=Courier New;" vertex="1" parent="1">
          <mxGeometry x="498.08000000000004" y="-273.58" width="118.85" height="54.58" as="geometry" />
        </mxCell>
        <mxCell id="_eA4tgvw_Bgz834lRvIM-6" value="" style="shape=image;verticalLabelPosition=bottom;labelBackgroundColor=default;verticalAlign=top;aspect=fixed;imageAspect=0;image=https://logos-world.net/wp-content/uploads/2023/06/Kubernetes-Logo.png;clipPath=inset(31.07% 0% 31.66% 0%);fontFamily=Courier New;" vertex="1" parent="1">
          <mxGeometry x="482.5" y="-355.9200000000001" width="150" height="31.5" as="geometry" />
        </mxCell>
        <mxCell id="_eA4tgvw_Bgz834lRvIM-7" value="" style="sketch=0;pointerEvents=1;shadow=0;dashed=0;html=1;strokeColor=none;fillColor=#505050;labelPosition=center;verticalLabelPosition=bottom;verticalAlign=top;outlineConnect=0;align=center;shape=mxgraph.office.devices.hard_disk;fontFamily=Courier New;" vertex="1" parent="1">
          <mxGeometry x="275" y="-292.28999999999996" width="30" height="40.5" as="geometry" />
        </mxCell>
        <mxCell id="_eA4tgvw_Bgz834lRvIM-8" value="" style="sketch=0;pointerEvents=1;shadow=0;dashed=0;html=1;strokeColor=none;fillColor=#434445;aspect=fixed;labelPosition=center;verticalLabelPosition=bottom;verticalAlign=top;align=center;outlineConnect=0;shape=mxgraph.vvd.ethernet_port;fontFamily=Courier New;" vertex="1" parent="1">
          <mxGeometry x="272.5" y="-334.3299999999999" width="35" height="35" as="geometry" />
        </mxCell>
        <mxCell id="_eA4tgvw_Bgz834lRvIM-9" value="Node 2" style="image;points=[];aspect=fixed;html=1;align=center;shadow=0;dashed=0;image=img/lib/allied_telesis/computer_and_terminals/Server_Desktop.svg;fontFamily=Courier New;" vertex="1" parent="1">
          <mxGeometry x="357.5" y="-337.21000000000004" width="64.69" height="82" as="geometry" />
        </mxCell>
        <mxCell id="_eA4tgvw_Bgz834lRvIM-10" style="edgeStyle=orthogonalEdgeStyle;rounded=0;orthogonalLoop=1;jettySize=auto;html=1;exitX=0.003;exitY=0.403;exitDx=0;exitDy=0;endArrow=none;endFill=0;exitPerimeter=0;fontFamily=Courier New;" edge="1" parent="1" target="_eA4tgvw_Bgz834lRvIM-16">
          <mxGeometry relative="1" as="geometry">
            <mxPoint x="470.4949999999999" y="-91.99000000000001" as="sourcePoint" />
            <Array as="points" />
          </mxGeometry>
        </mxCell>
        <mxCell id="_eA4tgvw_Bgz834lRvIM-11" value="" style="rounded=1;whiteSpace=wrap;html=1;fillColor=#6a00ff;strokeColor=#3700CC;fontColor=#ffffff;fontFamily=Courier New;" vertex="1" parent="1">
          <mxGeometry x="472.5" y="-189" width="165" height="150" as="geometry" />
        </mxCell>
        <mxCell id="_eA4tgvw_Bgz834lRvIM-12" style="edgeStyle=orthogonalEdgeStyle;rounded=0;orthogonalLoop=1;jettySize=auto;html=1;exitX=-0.001;exitY=0.215;exitDx=0;exitDy=0;endArrow=none;endFill=0;exitPerimeter=0;fontFamily=Courier New;" edge="1" parent="1" target="_eA4tgvw_Bgz834lRvIM-17">
          <mxGeometry relative="1" as="geometry">
            <mxPoint x="469.83500000000004" y="-137.10999999999984" as="sourcePoint" />
          </mxGeometry>
        </mxCell>
        <mxCell id="_eA4tgvw_Bgz834lRvIM-13" value="" style="shape=image;verticalLabelPosition=bottom;labelBackgroundColor=default;verticalAlign=top;aspect=fixed;imageAspect=0;image=https://upload.wikimedia.org/wikipedia/commons/thumb/8/8f/Cilium_Logo.svg/2560px-Cilium_Logo.svg.png;fontFamily=Courier New;" vertex="1" parent="1">
          <mxGeometry x="504.89666666666665" y="-131.41888888888894" width="100.22222222222221" height="37.83511111111111" as="geometry" />
        </mxCell>
        <mxCell id="_eA4tgvw_Bgz834lRvIM-14" value="" style="shape=image;verticalLabelPosition=bottom;labelBackgroundColor=default;verticalAlign=top;aspect=fixed;imageAspect=0;image=https://ceph.io/assets/bitmaps/Ceph_Logo_Standard_RGB_120411_fa.png;fontFamily=Courier New;" vertex="1" parent="1">
          <mxGeometry x="495.58000000000004" y="-93.57999999999998" width="118.85" height="54.58" as="geometry" />
        </mxCell>
        <mxCell id="_eA4tgvw_Bgz834lRvIM-15" value="" style="shape=image;verticalLabelPosition=bottom;labelBackgroundColor=default;verticalAlign=top;aspect=fixed;imageAspect=0;image=https://logos-world.net/wp-content/uploads/2023/06/Kubernetes-Logo.png;clipPath=inset(31.07% 0% 31.66% 0%);fontFamily=Courier New;" vertex="1" parent="1">
          <mxGeometry x="480" y="-175.92000000000007" width="150" height="31.5" as="geometry" />
        </mxCell>
        <mxCell id="_eA4tgvw_Bgz834lRvIM-16" value="" style="sketch=0;pointerEvents=1;shadow=0;dashed=0;html=1;strokeColor=none;fillColor=#505050;labelPosition=center;verticalLabelPosition=bottom;verticalAlign=top;outlineConnect=0;align=center;shape=mxgraph.office.devices.hard_disk;fontFamily=Courier New;" vertex="1" parent="1">
          <mxGeometry x="272.5" y="-112.28999999999996" width="30" height="40.5" as="geometry" />
        </mxCell>
        <mxCell id="_eA4tgvw_Bgz834lRvIM-17" value="" style="sketch=0;pointerEvents=1;shadow=0;dashed=0;html=1;strokeColor=none;fillColor=#434445;aspect=fixed;labelPosition=center;verticalLabelPosition=bottom;verticalAlign=top;align=center;outlineConnect=0;shape=mxgraph.vvd.ethernet_port;fontFamily=Courier New;" vertex="1" parent="1">
          <mxGeometry x="270" y="-154.32999999999993" width="35" height="35" as="geometry" />
        </mxCell>
        <mxCell id="_eA4tgvw_Bgz834lRvIM-18" value="Node 3" style="image;points=[];aspect=fixed;html=1;align=center;shadow=0;dashed=0;image=img/lib/allied_telesis/computer_and_terminals/Server_Desktop.svg;fontFamily=Courier New;" vertex="1" parent="1">
          <mxGeometry x="355" y="-157.21000000000004" width="64.69" height="82" as="geometry" />
        </mxCell>
        <mxCell id="_eA4tgvw_Bgz834lRvIM-19" style="edgeStyle=orthogonalEdgeStyle;rounded=0;orthogonalLoop=1;jettySize=auto;html=1;endArrow=none;endFill=0;curved=1;fontFamily=Courier New;" edge="1" parent="1" source="_eA4tgvw_Bgz834lRvIM-8" target="UWezN6xjTHgVV8BSWIIu-24">
          <mxGeometry relative="1" as="geometry">
            <mxPoint x="280" y="-488" as="sourcePoint" />
            <mxPoint x="98" y="-436" as="targetPoint" />
          </mxGeometry>
        </mxCell>
        <mxCell id="_eA4tgvw_Bgz834lRvIM-20" style="edgeStyle=orthogonalEdgeStyle;rounded=0;orthogonalLoop=1;jettySize=auto;html=1;endArrow=none;endFill=0;curved=1;fontFamily=Courier New;" edge="1" parent="1" source="_eA4tgvw_Bgz834lRvIM-17" target="UWezN6xjTHgVV8BSWIIu-24">
          <mxGeometry relative="1" as="geometry">
            <mxPoint x="280" y="-488" as="sourcePoint" />
            <mxPoint x="98" y="-436" as="targetPoint" />
          </mxGeometry>
        </mxCell>
        <mxCell id="_eA4tgvw_Bgz834lRvIM-25" value="&lt;h1 style=&quot;margin-top: 0px;&quot;&gt;Firewall&lt;/h1&gt;&lt;p&gt;10.0.0.0/16&lt;/p&gt;" style="text;html=1;whiteSpace=wrap;overflow=hidden;rounded=0;fontFamily=Courier New;" vertex="1" parent="1">
          <mxGeometry x="127.5" y="-428.92" width="180" height="73" as="geometry" />
        </mxCell>
        <mxCell id="_eA4tgvw_Bgz834lRvIM-27" value="" style="group" vertex="1" connectable="0" parent="1">
          <mxGeometry x="927" y="-550" width="165" height="150" as="geometry" />
        </mxCell>
        <mxCell id="_eA4tgvw_Bgz834lRvIM-22" value="Ceph S3 Bucket" style="rounded=1;whiteSpace=wrap;html=1;fillColor=#0050ef;strokeColor=#001DBC;fontColor=#ffffff;verticalAlign=top;fontFamily=Courier New;" vertex="1" parent="_eA4tgvw_Bgz834lRvIM-27">
          <mxGeometry width="165" height="150" as="geometry" />
        </mxCell>
        <mxCell id="_eA4tgvw_Bgz834lRvIM-26" value="" style="outlineConnect=0;dashed=0;verticalLabelPosition=bottom;verticalAlign=top;align=center;html=1;shape=mxgraph.aws3.bucket_with_objects;fillColor=#E05243;gradientColor=none;" vertex="1" parent="_eA4tgvw_Bgz834lRvIM-27">
          <mxGeometry x="52.5" y="46.460000000000036" width="60" height="61.5" as="geometry" />
        </mxCell>
        <mxCell id="_eA4tgvw_Bgz834lRvIM-31" value="" style="group" vertex="1" connectable="0" parent="1">
          <mxGeometry x="703" y="-550" width="165" height="150" as="geometry" />
        </mxCell>
        <mxCell id="_eA4tgvw_Bgz834lRvIM-32" value="Networking" style="rounded=1;whiteSpace=wrap;html=1;fillColor=#0050ef;strokeColor=#001DBC;fontColor=#ffffff;verticalAlign=top;fontFamily=Courier New;" vertex="1" parent="_eA4tgvw_Bgz834lRvIM-31">
          <mxGeometry width="165" height="150" as="geometry" />
        </mxCell>
        <mxCell id="UWezN6xjTHgVV8BSWIIu-4" value="" style="shape=image;verticalLabelPosition=bottom;labelBackgroundColor=default;verticalAlign=top;aspect=fixed;imageAspect=0;image=https://upload.wikimedia.org/wikipedia/commons/thumb/8/8f/Cilium_Logo.svg/2560px-Cilium_Logo.svg.png;fontFamily=Courier New;" vertex="1" parent="_eA4tgvw_Bgz834lRvIM-31">
          <mxGeometry x="32.38666666666654" y="95.17111111111109" width="100.22222222222221" height="37.83511111111111" as="geometry" />
        </mxCell>
        <mxCell id="_eA4tgvw_Bgz834lRvIM-34" value="" style="group" vertex="1" connectable="0" parent="1">
          <mxGeometry x="703" y="-369" width="165" height="150" as="geometry" />
        </mxCell>
        <mxCell id="_eA4tgvw_Bgz834lRvIM-35" value="Storage Replication" style="rounded=1;whiteSpace=wrap;html=1;fillColor=#0050ef;strokeColor=#001DBC;fontColor=#ffffff;verticalAlign=top;fontFamily=Courier New;" vertex="1" parent="_eA4tgvw_Bgz834lRvIM-34">
          <mxGeometry width="165" height="150" as="geometry" />
        </mxCell>
        <mxCell id="UWezN6xjTHgVV8BSWIIu-17" value="" style="shape=image;verticalLabelPosition=bottom;labelBackgroundColor=default;verticalAlign=top;aspect=fixed;imageAspect=0;image=https://ceph.io/assets/bitmaps/Ceph_Logo_Standard_RGB_120411_fa.png;fontFamily=Courier New;" vertex="1" parent="_eA4tgvw_Bgz834lRvIM-34">
          <mxGeometry x="18" y="77" width="118.85" height="54.58" as="geometry" />
        </mxCell>
        <mxCell id="_eA4tgvw_Bgz834lRvIM-45" value="" style="shape=image;verticalLabelPosition=bottom;labelBackgroundColor=default;verticalAlign=top;aspect=fixed;imageAspect=0;image=https://upload.wikimedia.org/wikipedia/commons/thumb/8/8f/Cilium_Logo.svg/2560px-Cilium_Logo.svg.png;fontFamily=Courier New;" vertex="1" parent="1">
          <mxGeometry x="507.39666666666665" y="-499.2488888888889" width="100.22222222222221" height="37.83511111111111" as="geometry" />
        </mxCell>
        <mxCell id="_eA4tgvw_Bgz834lRvIM-46" value="" style="shape=image;verticalLabelPosition=bottom;labelBackgroundColor=default;verticalAlign=top;aspect=fixed;imageAspect=0;image=https://ceph.io/assets/bitmaps/Ceph_Logo_Standard_RGB_120411_fa.png;fontFamily=Courier New;" vertex="1" parent="1">
          <mxGeometry x="498.08000000000004" y="-461.40999999999997" width="118.85" height="54.58" as="geometry" />
        </mxCell>
        <mxCell id="_eA4tgvw_Bgz834lRvIM-55" value="Metric Scraping" style="rounded=1;whiteSpace=wrap;html=1;fillColor=#0050ef;strokeColor=#001DBC;fontColor=#ffffff;verticalAlign=top;fontFamily=Courier New;" vertex="1" parent="1">
          <mxGeometry x="703" y="-191.21" width="165" height="150" as="geometry" />
        </mxCell>
        <mxCell id="_eA4tgvw_Bgz834lRvIM-57" value="" style="shape=image;verticalLabelPosition=bottom;labelBackgroundColor=default;verticalAlign=top;aspect=fixed;imageAspect=0;image=https://www.derdack.com/wp-content/uploads/sites/2/2021/09/prometheus-logo-3.png;" vertex="1" parent="1">
          <mxGeometry x="724.08" y="-112.29" width="122.85" height="64.29" as="geometry" />
        </mxCell>
        <mxCell id="_eA4tgvw_Bgz834lRvIM-58" value="Fleet-Telemetry" style="rounded=1;whiteSpace=wrap;html=1;fillColor=#0050ef;strokeColor=#001DBC;fontColor=#ffffff;verticalAlign=top;fontFamily=Courier New;" vertex="1" parent="1">
          <mxGeometry x="927" y="-191.21" width="165" height="150" as="geometry" />
        </mxCell>
        <mxCell id="_eA4tgvw_Bgz834lRvIM-48" value="Vizualization" style="rounded=1;whiteSpace=wrap;html=1;fillColor=#0050ef;strokeColor=#001DBC;fontColor=#ffffff;verticalAlign=top;fontFamily=Courier New;" vertex="1" parent="1">
          <mxGeometry x="928" y="-368" width="165" height="150" as="geometry" />
        </mxCell>
        <mxCell id="_eA4tgvw_Bgz834lRvIM-53" value="" style="shape=image;verticalLabelPosition=bottom;labelBackgroundColor=default;verticalAlign=top;aspect=fixed;imageAspect=0;image=https://miro.medium.com/v2/resize:fit:1400/1*YwJrXgJolwGeALuiDCGB6w.png;" vertex="1" parent="1">
          <mxGeometry x="952.5" y="-278.78" width="116" height="28.13" as="geometry" />
        </mxCell>
        <mxCell id="_eA4tgvw_Bgz834lRvIM-61" value="Kafka" style="rounded=1;whiteSpace=wrap;html=1;fillColor=#0050ef;strokeColor=#001DBC;fontColor=#ffffff;verticalAlign=top;fontFamily=Courier New;" vertex="1" parent="1">
          <mxGeometry x="1141" y="-550" width="165" height="150" as="geometry" />
        </mxCell>
        <mxCell id="_eA4tgvw_Bgz834lRvIM-59" value="" style="shape=image;verticalLabelPosition=bottom;labelBackgroundColor=default;verticalAlign=top;aspect=fixed;imageAspect=0;image=https://strimzi.io/assets/images/strimzi_logo.png;" vertex="1" parent="1">
          <mxGeometry x="1154.04" y="-453" width="138.93" height="36.29" as="geometry" />
        </mxCell>
        <mxCell id="_eA4tgvw_Bgz834lRvIM-63" value="Fleet-Telemetry-Consumer" style="rounded=1;whiteSpace=wrap;html=1;fillColor=#0050ef;strokeColor=#001DBC;fontColor=#ffffff;verticalAlign=top;fontFamily=Courier New;" vertex="1" parent="1">
          <mxGeometry x="1141" y="-367.5" width="165" height="150" as="geometry" />
        </mxCell>
        <mxCell id="_eA4tgvw_Bgz834lRvIM-65" value="GitOps" style="rounded=1;whiteSpace=wrap;html=1;fillColor=#0050ef;strokeColor=#001DBC;fontColor=#ffffff;verticalAlign=top;fontFamily=Courier New;" vertex="1" parent="1">
          <mxGeometry x="1141" y="-189" width="165" height="150" as="geometry" />
        </mxCell>
        <mxCell id="_eA4tgvw_Bgz834lRvIM-64" value="" style="shape=image;verticalLabelPosition=bottom;labelBackgroundColor=default;verticalAlign=top;aspect=fixed;imageAspect=0;image=https://miro.medium.com/v2/resize:fit:1400/1*LydFAwy_HJjw8lGCsi1Iqg.png;" vertex="1" parent="1">
          <mxGeometry x="1166.49" y="-100.93" width="114.04" height="52.93" as="geometry" />
        </mxCell>
        <mxCell id="_eA4tgvw_Bgz834lRvIM-66" value="" style="shape=image;verticalLabelPosition=bottom;labelBackgroundColor=default;verticalAlign=top;aspect=fixed;imageAspect=0;image=https://upload.wikimedia.org/wikipedia/commons/thumb/4/4b/Cloudflare_Logo.svg/1200px-Cloudflare_Logo.svg.png;" vertex="1" parent="1">
          <mxGeometry x="1345" y="-494" width="314.36" height="104" as="geometry" />
        </mxCell>
      </root>
    </mxGraphModel>
  </diagram>
  <diagram id="KHKEF2A1Tvm7Cy0rTGgU" name="Tesla Infrastructure">
    <mxGraphModel dx="1514" dy="991" grid="0" gridSize="10" guides="1" tooltips="1" connect="1" arrows="1" fold="1" page="1" pageScale="1" pageWidth="850" pageHeight="1100" math="0" shadow="0">
      <root>
        <mxCell id="0" />
        <mxCell id="1" parent="0" />
      </root>
    </mxGraphModel>
  </diagram>
  <diagram id="Gl6wnszyP8ZenQI0uooN" name="Page-3">
    <mxGraphModel grid="0" page="1" gridSize="10" guides="1" tooltips="1" connect="1" arrows="1" fold="1" pageScale="1" pageWidth="850" pageHeight="1100" math="0" shadow="0">
      <root>
        <mxCell id="0" />
        <mxCell id="1" parent="0" />
      </root>
    </mxGraphModel>
  </diagram>
</mxfile>
